# xmcd
#
# Track frame offsets:
#	150
#	20027
#	39746
#	59309
#	85052
#	105212
#	126681
#	145726
#	159873
#	179294
#	198808
#	218702
#	238198
#	255261
#	278182
#	301571
#	317777
#	335886
#
# Disc length: 4812 seconds
#
# Revision: 0
# Processed by: cddbd v1.5.2PL0 Copyright (c) Steve Scherf et al.
# Submitted via: EasyCDDAExtractor 10.0.3.1
#
DISCID=f812ca12
DTITLE=Tony Braxton - Mtv - History 2000
DYEAR=2000
DGENRE=Pop
TTITLE0=Un Break My Heart
TTITLE1=He Wasn´T Man Enough
TTITLE2=Another Sad Love Song ( Smoothead Out Version )
TTITLE3=New Many Ways ( R. Kely Remix )
TTITLE4=Breathe Again
TTITLE5=Spanish Guitar
TTITLE6=I Don´T Want You
TTITLE7=Maybe
TTITLE8=How Cold An Angel Break My Heart
TTITLE9=Fairy Tale
TTITLE10=Best Friend
TTITLE11=Find Me A Man
TTITLE12=Speaking In Tongues
TTITLE13=I Love Me Some Him
TTITLE14=In The Late Of Night
TTITLE15=Come On Over More
TTITLE16=Never Just For A Ring
TTITLE17=Talking In His Sleep
EXTD=
EXTT0=
EXTT1=
EXTT2=
EXTT3=
EXTT4=
EXTT5=
EXTT6=
EXTT7=
EXTT8=
EXTT9=
EXTT10=
EXTT11=
EXTT12=
EXTT13=
EXTT14=
EXTT15=
EXTT16=
EXTT17=
PLAYORDER=
